<?xml version="1.0" encoding="utf-8"?>
<!-- Generator: Adobe Illustrator 23.0.3, SVG Export Plug-In . SVG Version: 6.00 Build 0)  -->
<svg version="1.1" xmlns="http://www.w3.org/2000/svg" xmlns:xlink="http://www.w3.org/1999/xlink" x="0px" y="0px"
	 viewBox="0 0 50 50" style="enable-background:new 0 0 50 50;" xml:space="preserve">
<style type="text/css">
	.st0{fill:#FFFFFF;}
	.st1{fill:none;stroke:#000000;stroke-width:2;stroke-miterlimit:10;}
</style>
<g id="Layer_1">
	<g>
		<circle class="st0" cx="25" cy="25" r="18"/>
		<path d="M25,8c9.37,0,17,7.63,17,17s-7.63,17-17,17S8,34.37,8,25S15.63,8,25,8 M25,6C14.51,6,6,14.51,6,25s8.51,19,19,19
			s19-8.51,19-19S35.49,6,25,6L25,6z"/>
	</g>
	<g>
		<line class="st1" x1="25" y1="25" x2="44" y2="25"/>
	</g>
	<g>
		<line class="st1" x1="24.78" y1="24.72" x2="38" y2="12"/>
	</g>
	<g>
		<line class="st1" x1="24.89" y1="24.6" x2="22.11" y2="43.4"/>
	</g>
</g>
<g id="Layer_2">
	<g>
		<circle class="st0" cx="25" cy="25" r="7"/>
		<path d="M25,19c3.31,0,6,2.69,6,6s-2.69,6-6,6s-6-2.69-6-6S21.69,19,25,19 M25,17c-4.42,0-8,3.58-8,8s3.58,8,8,8s8-3.58,8-8
			S29.42,17,25,17L25,17z"/>
	</g>
</g>
</svg>
