<svg xmlns="http://www.w3.org/2000/svg" width="168" height="52" viewBox="0 0 168 52">
  <title>svgar-logo</title>
  <g  id="Layer_2" data-name="Layer 2">
    <g>
      <path d="M133,6.46q4.26,3.69,4.26,11.31V35.83H126.64v-4.2q-2.46,4.74-9.6,4.74a15,15,0,0,1-6.54-1.32,9.69,9.69,0,0,1-4.17-3.57,9.46,9.46,0,0,1-1.41-5.13,8.32,8.32,0,0,1,3.54-7.17q3.54-2.55,10.92-2.55h6.48q-.3-5.16-6.9-5.16a15.83,15.83,0,0,0-4.74.75,12.63,12.63,0,0,0-4.08,2.07L106.3,6.55a21.27,21.27,0,0,1,6.57-2.79,31.24,31.24,0,0,1,7.77-1Q128.74,2.77,133,6.46Zm-9.3,21.75a5.34,5.34,0,0,0,2.16-2.82V22.57h-4.92q-5,0-5,3.3a2.9,2.9,0,0,0,1.14,2.4,4.91,4.91,0,0,0,3.12.9A6.31,6.31,0,0,0,123.7,28.21Z"/>
      <path d="M159.85,3.88a17.19,17.19,0,0,1,6.39-1.11V13a23.31,23.31,0,0,0-2.58-.18,8,8,0,0,0-5.73,2q-2.07,2-2.07,6.06V35.83h-11.4V3.31h10.86v3.9A10.61,10.61,0,0,1,159.85,3.88Z"/>
    </g>
  </g>
  <g id="Layer_3" data-name="Layer 3">
    <rect x="107" y="-6.5" width="6" height="44" style="fill: #fff"/>
  </g>
  <g  id="Layer_7" data-name="Layer 7">
    <g>
      <path d="M8.56,35.44A21.24,21.24,0,0,1,2.2,33l3.42-7.8A19.32,19.32,0,0,0,10.9,27.4a23.61,23.61,0,0,0,6.06.81,9.71,9.71,0,0,0,3.93-.57A1.79,1.79,0,0,0,22.06,26q0-1.08-1.41-1.53a29.18,29.18,0,0,0-4.47-.87,44.15,44.15,0,0,1-6.63-1.26,10.23,10.23,0,0,1-4.71-2.88,8.24,8.24,0,0,1-2-5.88A8.89,8.89,0,0,1,4.72,8a12.33,12.33,0,0,1,5.43-3.84A23.27,23.27,0,0,1,18.7,2.77a34.56,34.56,0,0,1,7,.72,20.18,20.18,0,0,1,5.82,2l-3.42,7.74a19,19,0,0,0-9.36-2.4,9.33,9.33,0,0,0-4,.63,1.88,1.88,0,0,0-1.26,1.65q0,1.14,1.38,1.59a31.64,31.64,0,0,0,4.56.93,50.28,50.28,0,0,1,6.66,1.38,10.18,10.18,0,0,1,4.59,2.85,8.11,8.11,0,0,1,1.95,5.79,8.8,8.8,0,0,1-1.86,5.49A12.12,12.12,0,0,1,25.33,35a24.61,24.61,0,0,1-8.73,1.38A35,35,0,0,1,8.56,35.44Z" style="fill: #fff;stroke: #fff;stroke-miterlimit: 10;stroke-width: 7px"/>
      <path d="M72.28,3.31,58.84,35.83H47.08L33.7,3.31H45.4l7.8,19.86L61.42,3.31Z" style="fill: #fff;stroke: #fff;stroke-miterlimit: 10;stroke-width: 7px"/>
      <path d="M109.3,3.31V29.89q0,9.06-4.92,13.59T90.22,48a36,36,0,0,1-9-1.08,21.28,21.28,0,0,1-7.14-3.18l4.14-8a14.57,14.57,0,0,0,5,2.55,20.27,20.27,0,0,0,6,.93q4.5,0,6.6-2t2.1-5.88V30.31q-3.3,3.84-9.66,3.84a16.71,16.71,0,0,1-8-1.95,14.85,14.85,0,0,1-5.82-5.52,15.62,15.62,0,0,1-2.16-8.25,15.51,15.51,0,0,1,2.16-8.19,14.85,14.85,0,0,1,5.82-5.52,16.71,16.71,0,0,1,8-1.95q7,0,10.2,4.5v-4ZM96,23.23a6.24,6.24,0,0,0,2-4.8,6.19,6.19,0,0,0-2-4.77,7.22,7.22,0,0,0-5.1-1.83,7.33,7.33,0,0,0-5.13,1.83,6.15,6.15,0,0,0-2,4.77,6.2,6.2,0,0,0,2,4.8,7.28,7.28,0,0,0,5.1,1.86A7.18,7.18,0,0,0,96,23.23Z" style="fill: #fff;stroke: #fff;stroke-miterlimit: 10;stroke-width: 7px"/>
    </g>
  </g>
  <g id="Layer_1" data-name="Layer 1">
    <g>
      <path d="M8.56,35.44A21.24,21.24,0,0,1,2.2,33l3.42-7.8A19.32,19.32,0,0,0,10.9,27.4a23.61,23.61,0,0,0,6.06.81,9.71,9.71,0,0,0,3.93-.57A1.79,1.79,0,0,0,22.06,26q0-1.08-1.41-1.53a29.18,29.18,0,0,0-4.47-.87,44.15,44.15,0,0,1-6.63-1.26,10.23,10.23,0,0,1-4.71-2.88,8.24,8.24,0,0,1-2-5.88A8.89,8.89,0,0,1,4.72,8a12.33,12.33,0,0,1,5.43-3.84A23.27,23.27,0,0,1,18.7,2.77a34.56,34.56,0,0,1,7,.72,20.18,20.18,0,0,1,5.82,2l-3.42,7.74a19,19,0,0,0-9.36-2.4,9.33,9.33,0,0,0-4,.63,1.88,1.88,0,0,0-1.26,1.65q0,1.14,1.38,1.59a31.64,31.64,0,0,0,4.56.93,50.28,50.28,0,0,1,6.66,1.38,10.18,10.18,0,0,1,4.59,2.85,8.11,8.11,0,0,1,1.95,5.79,8.8,8.8,0,0,1-1.86,5.49A12.12,12.12,0,0,1,25.33,35a24.61,24.61,0,0,1-8.73,1.38A35,35,0,0,1,8.56,35.44Z" style="fill: #fff;stroke: #000;stroke-miterlimit: 10;stroke-width: 2px"/>
      <path d="M72.28,3.31,58.84,35.83H47.08L33.7,3.31H45.4l7.8,19.86L61.42,3.31Z" style="fill: #fff;stroke: #000;stroke-miterlimit: 10;stroke-width: 2px"/>
      <path d="M109.3,3.31V29.89q0,9.06-4.92,13.59T90.22,48a36,36,0,0,1-9-1.08,21.28,21.28,0,0,1-7.14-3.18l4.14-8a14.57,14.57,0,0,0,5,2.55,20.27,20.27,0,0,0,6,.93q4.5,0,6.6-2t2.1-5.88V30.31q-3.3,3.84-9.66,3.84a16.71,16.71,0,0,1-8-1.95,14.85,14.85,0,0,1-5.82-5.52,15.62,15.62,0,0,1-2.16-8.25,15.51,15.51,0,0,1,2.16-8.19,14.85,14.85,0,0,1,5.82-5.52,16.71,16.71,0,0,1,8-1.95q7,0,10.2,4.5v-4ZM96,23.23a6.24,6.24,0,0,0,2-4.8,6.19,6.19,0,0,0-2-4.77,7.22,7.22,0,0,0-5.1-1.83,7.33,7.33,0,0,0-5.13,1.83,6.15,6.15,0,0,0-2,4.77,6.2,6.2,0,0,0,2,4.8,7.28,7.28,0,0,0,5.1,1.86A7.18,7.18,0,0,0,96,23.23Z" style="fill: #fff;stroke: #000;stroke-miterlimit: 10;stroke-width: 2px"/>
    </g>
  </g>
</svg>
